<svg xmlns="http://www.w3.org/2000/svg" viewBox="0 0 600 244" role="img" aria-label="Fizki">
  <g transform="translate(0 244) scale(0.05 -0.05)" fill="#ffc000">
    <path d="M4360 4422 l0 -162 -1253 -5 -1253 -5 -97 -260 c-261 -692 -818 -2072 -1192 -2950 -138 -324 -263 -620 -279 -656 -36 -85 -66 -104 460 286 421 312 434 323 486 440 30 66 115 246 188 400 73 154 159 336 189 405 l56 125 213 2 c116 1 325 8 462 15 l250 13 296 220 296 220 -621 11 c-341 6 -624 15 -629 20 -5 5 101 243 236 529 l244 520 729 6 c401 4 839 0 973 -7 l244 -13 6 -119 6 -120 370 234 c586 369 620 393 610 410 -12 19 -905 571 -955 590 -31 12 -35 -3 -35 -149z"/>
    <path d="M10560 4400 l0 -160 -398 0 -397 0 -189 -205 c-104 -113 -301 -331 -437 -485 -137 -154 -313 -350 -392 -436 l-143 -156 145 -334 c79 -184 179 -422 221 -529 l77 -195 377 0 378 0 -261 513 c-144 281 -261 524 -261 539 0 14 128 161 284 327 l285 301 355 0 356 0 0 -130 c0 -71 6 -130 12 -130 21 0 986 609 987 623 1 12 -970 617 -990 617 -5 0 -9 -72 -9 -160z"/>
    <path d="M5872 3882 c-23 -16 -44 -30 -46 -31 -2 -1 -18 -72 -36 -158 -18 -85 -37 -168 -43 -184 -10 -25 56 -29 456 -29 l467 -1 -140 -134 c-164 -158 -256 -242 -745 -682 l-363 -327 -23 -113 c-12 -62 -34 -160 -49 -218 l-26 -105 884 0 885 0 51 223 51 223 -423 -11 c-232 -5 -450 -6 -483 -1 l-62 9 132 125 c72 69 338 312 591 541 253 229 472 428 486 441 15 13 44 104 65 202 21 98 43 196 48 218 12 53 -1599 64 -1677 12z"/>
    <path d="M8131 3880 c-5 -16 -15 -66 -22 -110 -39 -238 -339 -1536 -421 -1825 l-13 -45 328 0 328 0 86 405 c48 223 149 665 225 983 76 318 138 588 138 600 0 38 -638 30 -649 -8z"/>
    <path d="M4750 3174 l-358 -225 -112 -470 c-62 -258 -118 -494 -126 -524 l-15 -55 330 0 c326 0 330 1 340 45 6 25 56 270 111 545 55 275 121 592 147 705 26 113 46 205 44 205 -2 0 -165 -102 -361 -226z"/>
    <path d="M10823 3072 c-179 -114 -334 -215 -343 -225 -9 -9 -63 -215 -121 -457 -57 -242 -108 -451 -114 -465 -7 -19 65 -25 322 -25 297 0 331 3 340 35 6 19 38 179 72 356 33 176 92 464 131 639 76 348 77 350 55 349 -8 0 -162 -93 -342 -207z"/>
  </g>
</svg>
